/* XPM */
static const char* AberrationInspectorIcon_XPM[]={
"24 24 87 2",
"Qt c None",
".# c #00008a",
".a c #00008d",
".b c #00008f",
".y c #000090",
".c c #000092",
".d c #000094",
".C c #000095",
".e c #000097",
".s c #00009a",
".z c #00009c",
".g c #00009e",
".D c #00009f",
".h c #0000a1",
".G c #0000a2",
".i c #0000a4",
".K c #0000a5",
".j c #0000a7",
".T c #0000a8",
".k c #0000a9",
".L c #0000aa",
".l c #0000ab",
".t c #0000ac",
".Y c #0000ad",
".u c #0000ae",
".H c #0000af",
".6 c #0000b0",
".A c #0000b1",
".Z c #0000b2",
".m c #0000b4",
".3 c #0000b5",
".n c #0000b6",
".M c #0000b7",
".o c #0000b8",
".v c #0000b9",
".0 c #0000ba",
".p c #0000bb",
".N c #0000bc",
"#a c #0000bd",
".q c #0000be",
".O c #0000bf",
".r c #0000c0",
".w c #0000c1",
".U c #0000c2",
".x c #0000c3",
".E c #0000c4",
".7 c #0000c5",
".B c #0000c6",
".1 c #0000c7",
"#j c #0000c8",
".F c #0000c9",
".P c #0000ca",
"#o c #0000cb",
".I c #0000cc",
".8 c #0000cd",
".J c #0000ce",
".V c #0000cf",
"#k c #0000d0",
".Q c #0000d1",
"#b c #0000d2",
".R c #0000d4",
"#c c #0000d5",
".S c #0000d6",
".W c #0000d7",
"#h c #0000d8",
".X c #0000d9",
".4 c #0000da",
".2 c #0000dc",
"#l c #0000dd",
".5 c #0000de",
".9 c #0000df",
"#s c #0000e0",
"#. c #0000e1",
"#d c #0000e2",
"## c #0000e4",
"#m c #0000e5",
"#e c #0000e7",
"#f c #0000e9",
"#p c #0000ea",
"#g c #0000ec",
"#t c #0000ed",
"#i c #0000ef",
"#n c #0000f2",
"#q c #0000f4",
"#r c #0000f7",
"#u c #0000f9",
".f c #bfbfbf",
"QtQtQtQtQtQtQtQtQtQtQtQtQtQtQtQtQtQtQtQtQtQtQtQt",
"Qt.#.a.b.c.d.e.f.f.g.h.i.j.k.l.f.f.m.n.o.p.q.rQt",
"Qt.a.b.c.d.e.s.f.f.h.i.j.k.t.u.f.f.n.v.p.q.w.xQt",
"Qt.y.c.d.e.s.z.f.f.i.j.k.t.u.A.f.f.v.p.q.w.x.BQt",
"Qt.c.C.e.s.z.D.f.f.j.k.t.u.A.m.f.f.p.q.w.E.B.FQt",
"Qt.C.e.s.z.D.G.f.f.k.t.H.A.m.n.f.f.q.w.E.B.F.IQt",
"Qt.e.s.z.D.G.i.f.f.t.H.A.m.n.v.f.f.w.E.B.F.I.JQt",
"Qt.f.f.f.f.f.f.f.f.f.f.f.f.f.f.f.f.f.f.f.f.f.fQt",
"Qt.f.f.f.f.f.f.f.f.f.f.f.f.f.f.f.f.f.f.f.f.f.fQt",
"Qt.D.G.K.j.L.t.f.f.m.M.v.N.O.w.f.f.P.I.J.Q.R.SQt",
"Qt.G.K.T.L.t.H.f.f.M.v.N.O.U.E.f.f.I.V.Q.R.W.XQt",
"Qt.K.T.L.Y.H.Z.f.f.0.N.O.U.E.1.f.f.V.Q.R.W.X.2Qt",
"Qt.T.L.Y.H.Z.3.f.f.N.O.U.E.1.P.f.f.Q.R.W.4.2.5Qt",
"Qt.L.Y.6.Z.3.M.f.f.O.U.7.1.P.8.f.f.R.W.4.2.9#.Qt",
"Qt.Y.6.Z.3.M.0.f.f.U.7.1.P.8.V.f.f.W.4.2.9#.##Qt",
"Qt.f.f.f.f.f.f.f.f.f.f.f.f.f.f.f.f.f.f.f.f.f.fQt",
"Qt.f.f.f.f.f.f.f.f.f.f.f.f.f.f.f.f.f.f.f.f.f.fQt",
"Qt.3.o.0#a.r.U.f.f.P.8.V#b#c.W.f.f.9#d###e#f#gQt",
"Qt.o.0#a.r.U.7.f.f.8.V#b#c#h.4.f.f#d###e#f#g#iQt",
"Qt.p#a.r.x.7#j.f.f#k#b#c#h.4#l.f.f#m#e#f#g#i#nQt",
"Qt#a.r.x.7#j#o.f.f#b#c#h.4#l.9.f.f#e#p#g#i#n#qQt",
"Qt.r.x.B#j#o.8.f.f#c#h.4#l.9#d.f.f#p#g#i#n#q#rQt",
"Qt.x.B#j#o.8#k.f.f#h.4#l#s#d#m.f.f#t#i#n#q#r#uQt",
"QtQtQtQtQtQtQtQtQtQtQtQtQtQtQtQtQtQtQtQtQtQtQtQt"};
