/* XPM */
static const char *ExternalToolIcon_XPM[]={
"24 24 8 1",
". c None",
"a c #0000f8",
"b c #0000f8",
"e c #000000",
"# c #0000f8",
"d c #0000ff",
"f c #0203ff",
"c c #ff0000",
"........................",
".######################.",
"ab#########cd##########.",
".##########c###########.",
".##########c###########.",
".######c###c###c#######.",
".#######c##c##c########.",
".########c#c#c#########.",
".#########ccc##########.",
".##########cd##########.",
".######################.",
".######################.",
".#####eeee#e###edeeee##.",
".#####eddd#ed##ede#####.",
".#####e#####e#ee#e#####.",
".#####e#####eded#ed####.",
".#####eeee###ed##eeeed#.",
".#####edddd#e#ed#e#####.",
".#####e#####e#ed#e#####.",
".##ee#e####e###ede#####.",
".##ee#eeee#e###edeeee##.",
".######################.",
".f#####################.",
"........................"};
